<?xml version="1.0" standalone="no"?><!DOCTYPE svg PUBLIC "-//W3C//DTD SVG 1.1//EN" "http://www.w3.org/Graphics/SVG/1.1/DTD/svg11.dtd"><svg t="1736735655543" class="icon" viewBox="0 0 1260 1024" version="1.1" xmlns="http://www.w3.org/2000/svg" p-id="1558" xmlns:xlink="http://www.w3.org/1999/xlink" width="246.09375" height="200"><path d="M1232.738462 429.292308c27.805538 19.062154 27.805538 66.717538 0 85.779692L997.848615 675.84c-27.805538 19.062154-62.621538-4.726154-62.621538-42.850462V531.692308H745.865846a157.538462 157.538462 0 0 0-125.479384 62.227692l-239.143385 315.076923a78.769231 78.769231 0 0 1-24.418462 21.188923c-24.654769 13.705846-40.802462 20.48-48.521846 20.48H61.124923a59.549538 59.549538 0 0 1 0-118.941538h143.911385a157.538462 157.538462 0 0 0 125.558154-62.464l199.364923-263.010462A236.307692 236.307692 0 0 1 718.375385 412.672h216.930461V311.374769c0-38.124308 34.894769-61.912615 62.700308-42.929231l234.732308 160.84677zM1.575385 60.494769C1.575385 27.569231 28.356923 0.945231 61.124923 0.945231h200.861539a157.538462 157.538462 0 0 1 133.907692 74.673231l126.582154 204.563692c19.692308 31.822769 16.777846 72.704-7.168 101.376a45.292308 45.292308 0 0 1-73.255385-5.198769L329.491692 194.56a157.538462 157.538462 0 0 0-133.907692-74.594462H61.124923A59.549538 59.549538 0 0 1 1.575385 60.494769z" fill="#1196db" p-id="1559"></path></svg>